<svg width="20" height="17" viewBox="0 0 20 17" fill="none" xmlns="http://www.w3.org/2000/svg">
<path d="M17 0.699707H3C2.20435 0.699707 1.44129 1.01578 0.87868 1.57839C0.316071 2.141 0 2.90406 0 3.69971V13.6997C0 14.4954 0.316071 15.2584 0.87868 15.821C1.44129 16.3836 2.20435 16.6997 3 16.6997H17C17.7956 16.6997 18.5587 16.3836 19.1213 15.821C19.6839 15.2584 20 14.4954 20 13.6997V3.69971C20 2.90406 19.6839 2.141 19.1213 1.57839C18.5587 1.01578 17.7956 0.699707 17 0.699707ZM17 2.69971L10.5 7.16971C10.348 7.25748 10.1755 7.30368 10 7.30368C9.82446 7.30368 9.65202 7.25748 9.5 7.16971L3 2.69971H17Z" fill="white"/>
</svg>
