<svg width="13" height="19" viewBox="0 0 13 19" fill="none" xmlns="http://www.w3.org/2000/svg">
<path d="M6.375 9.24971C5.77116 9.24971 5.19205 9.01265 4.76507 8.5907C4.33809 8.16874 4.09821 7.59644 4.09821 6.99971C4.09821 6.40297 4.33809 5.83067 4.76507 5.40872C5.19205 4.98676 5.77116 4.74971 6.375 4.74971C6.97884 4.74971 7.55795 4.98676 7.98493 5.40872C8.41191 5.83067 8.65179 6.40297 8.65179 6.99971C8.65179 7.29518 8.5929 7.58776 8.47848 7.86074C8.36406 8.13373 8.19635 8.38177 7.98493 8.5907C7.77351 8.79963 7.52252 8.96536 7.24629 9.07844C6.97006 9.19151 6.67399 9.24971 6.375 9.24971ZM6.375 0.699707C4.68425 0.699707 3.06274 1.36346 1.86719 2.54493C0.67165 3.72641 0 5.32884 0 6.99971C0 11.7247 6.375 18.6997 6.375 18.6997C6.375 18.6997 12.75 11.7247 12.75 6.99971C12.75 5.32884 12.0784 3.72641 10.8828 2.54493C9.68726 1.36346 8.06576 0.699707 6.375 0.699707Z" fill="white"/>
</svg>
