<svg width="15" height="15" viewBox="0 0 15 15" fill="none" xmlns="http://www.w3.org/2000/svg">
<path d="M13.8086 12.3633C14.0547 12.6367 14.0547 13.0469 13.7812 13.293L13.0156 14.0586C12.7695 14.332 12.3594 14.332 12.0859 14.0586L9.37891 11.3516C9.24219 11.2148 9.1875 11.0508 9.1875 10.8867V10.4219C8.20312 11.1875 7 11.625 5.6875 11.625C2.54297 11.625 0 9.08203 0 5.9375C0 2.82031 2.54297 0.25 5.6875 0.25C8.80469 0.25 11.375 2.82031 11.375 5.9375C11.375 7.27734 10.9102 8.48047 10.1719 9.4375H10.6094C10.7734 9.4375 10.9375 9.51953 11.0742 9.62891L13.8086 12.3633ZM5.6875 9.4375C7.60156 9.4375 9.1875 7.87891 9.1875 5.9375C9.1875 4.02344 7.60156 2.4375 5.6875 2.4375C3.74609 2.4375 2.1875 4.02344 2.1875 5.9375C2.1875 7.87891 3.74609 9.4375 5.6875 9.4375Z" fill="white"/>
</svg>
