<svg width="16" height="17" viewBox="0 0 16 17" fill="none" xmlns="http://www.w3.org/2000/svg">
<path d="M15.0667 16.1499C13.2148 16.1499 11.3852 15.7463 9.57778 14.9392C7.77037 14.1321 6.12593 12.9875 4.64444 11.5055C3.16296 10.0234 2.01867 8.37894 1.21156 6.57212C0.404444 4.76531 0.000592593 2.93568 0 1.08324C0 0.816569 0.0888888 0.594347 0.266667 0.416569C0.444444 0.238791 0.666667 0.149902 0.933334 0.149902H4.53333C4.74074 0.149902 4.92593 0.220421 5.08889 0.361458C5.25185 0.502495 5.34815 0.669013 5.37778 0.861013L5.95556 3.97212C5.98519 4.20916 5.97778 4.40916 5.93333 4.57212C5.88889 4.73509 5.80741 4.87583 5.68889 4.99435L3.53333 7.17212C3.82963 7.72027 4.18133 8.24975 4.58844 8.76057C4.99556 9.27138 5.44385 9.76412 5.93333 10.2388C6.39259 10.6981 6.87407 11.1241 7.37778 11.517C7.88148 11.9099 8.41481 12.269 8.97778 12.5943L11.0667 10.5055C11.2 10.3721 11.3742 10.2723 11.5893 10.2059C11.8044 10.1395 12.0154 10.1209 12.2222 10.1499L15.2889 10.7721C15.4963 10.8314 15.6667 10.9389 15.8 11.0948C15.9333 11.2506 16 11.4246 16 11.6166V15.2166C16 15.4832 15.9111 15.7055 15.7333 15.8832C15.5556 16.061 15.3333 16.1499 15.0667 16.1499Z" fill="white"/>
</svg>
