<svg width="20" height="20" viewBox="0 0 20 20" fill="none" xmlns="http://www.w3.org/2000/svg">
<path d="M18.7167 5C18.075 5.29167 17.3833 5.48333 16.6667 5.575C17.4 5.13333 17.9667 4.43333 18.2333 3.59167C17.5417 4.00833 16.775 4.3 15.9667 4.46667C15.3083 3.75 14.3833 3.33333 13.3333 3.33333C11.375 3.33333 9.77501 4.93333 9.77501 6.90833C9.77501 7.19167 9.80834 7.46667 9.86667 7.725C6.90001 7.575 4.25834 6.15 2.50001 3.99167C2.19167 4.51667 2.01667 5.13333 2.01667 5.78333C2.01667 7.025 2.64167 8.125 3.60834 8.75C3.01667 8.75 2.46667 8.58333 1.98334 8.33333V8.35833C1.98334 10.0917 3.21667 11.5417 4.85001 11.8667C4.32571 12.0108 3.77504 12.0308 3.24167 11.925C3.46801 12.6354 3.91129 13.257 4.50919 13.7024C5.10709 14.1479 5.82955 14.3947 6.57501 14.4083C5.3114 15.4088 3.74502 15.9495 2.13334 15.9417C1.85001 15.9417 1.56667 15.925 1.28334 15.8917C2.86667 16.9083 4.75001 17.5 6.76667 17.5C13.3333 17.5 16.9417 12.05 16.9417 7.325C16.9417 7.16667 16.9417 7.01667 16.9333 6.85833C17.6333 6.35833 18.2333 5.725 18.7167 5Z" fill="white"/>
</svg>
