<svg width="32" height="32" viewBox="0 0 32 32" fill="none" xmlns="http://www.w3.org/2000/svg">
<rect x="0.5" y="0.5" width="31" height="31" rx="15.5" fill="#3D8639"/>
<rect x="0.5" y="0.5" width="31" height="31" rx="15.5" stroke="white"/>
<path d="M24.7167 10.9999C24.075 11.2916 23.3833 11.4833 22.6667 11.5749C23.4 11.1333 23.9667 10.4333 24.2333 9.59159C23.5417 10.0083 22.775 10.2999 21.9667 10.4666C21.3083 9.74992 20.3833 9.33325 19.3333 9.33325C17.375 9.33325 15.775 10.9333 15.775 12.9083C15.775 13.1916 15.8083 13.4666 15.8667 13.7249C12.9 13.5749 10.2583 12.1499 8.49999 9.99159C8.19166 10.5166 8.01666 11.1333 8.01666 11.7833C8.01666 13.0249 8.64166 14.1249 9.60833 14.7499C9.01666 14.7499 8.46666 14.5833 7.98333 14.3333V14.3583C7.98333 16.0916 9.21666 17.5416 10.85 17.8666C10.3257 18.0107 9.77502 18.0307 9.24166 17.9249C9.468 18.6353 9.91127 19.2569 10.5092 19.7024C11.1071 20.1478 11.8295 20.3947 12.575 20.4083C11.3114 21.4087 9.745 21.9494 8.13333 21.9416C7.84999 21.9416 7.56666 21.9249 7.28333 21.8916C8.86666 22.9083 10.75 23.4999 12.7667 23.4999C19.3333 23.4999 22.9417 18.0499 22.9417 13.3249C22.9417 13.1666 22.9417 13.0166 22.9333 12.8583C23.6333 12.3583 24.2333 11.7249 24.7167 10.9999Z" fill="white"/>
</svg>
