<svg width="32" height="32" viewBox="0 0 32 32" fill="none" xmlns="http://www.w3.org/2000/svg">
<rect x="0.5" y="0.5" width="31" height="31" rx="15.5" fill="#3D8639"/>
<rect x="0.5" y="0.5" width="31" height="31" rx="15.5" stroke="white"/>
<path d="M12.045 21.4117L12.6483 21.7642C13.6657 22.3578 14.823 22.6693 16.0008 22.6667C17.3194 22.6667 18.6083 22.2758 19.7046 21.5432C20.801 20.8107 21.6554 19.7695 22.16 18.5513C22.6646 17.3331 22.7966 15.9927 22.5394 14.6995C22.2822 13.4063 21.6472 12.2184 20.7149 11.286C19.7825 10.3537 18.5946 9.71875 17.3014 9.46151C16.0082 9.20428 14.6678 9.3363 13.4496 9.84088C12.2314 10.3455 11.1902 11.2 10.4577 12.2963C9.72515 13.3926 9.33416 14.6815 9.33416 16.0001C9.33173 17.1783 9.64355 18.3358 10.2375 19.3534L10.5892 19.9567L10.045 21.9576L12.045 21.4117ZM7.67083 24.3334L8.79749 20.1934C8.05496 18.9209 7.66491 17.4734 7.66749 16.0001C7.66749 11.3976 11.3983 7.66675 16.0008 7.66675C20.6033 7.66675 24.3342 11.3976 24.3342 16.0001C24.3342 20.6026 20.6033 24.3334 16.0008 24.3334C14.5281 24.336 13.0813 23.9462 11.8092 23.2042L7.67083 24.3334ZM12.9933 12.0901C13.1055 12.0823 13.2175 12.0812 13.3292 12.0867C13.3742 12.0901 13.4192 12.0945 13.4642 12.1001C13.5967 12.1151 13.7425 12.1959 13.7917 12.3076C14.04 12.8715 14.2811 13.4381 14.515 14.0076C14.5667 14.1342 14.5358 14.2967 14.4375 14.4551C14.3875 14.5359 14.3092 14.6492 14.2183 14.7651C14.1242 14.8859 13.9217 15.1076 13.9217 15.1076C13.9217 15.1076 13.8392 15.2059 13.8708 15.3284C13.8825 15.3751 13.9208 15.4426 13.9558 15.4992L14.005 15.5784C14.2183 15.9342 14.505 16.2951 14.855 16.6351C14.955 16.7317 15.0525 16.8309 15.1575 16.9234C15.5475 17.2676 15.9892 17.5484 16.4658 17.7567L16.47 17.7584C16.5408 17.7892 16.5767 17.8059 16.68 17.8501C16.7317 17.8717 16.7847 17.8901 16.8392 17.9051C16.8592 17.9106 16.8794 17.9137 16.9 17.9142C16.9475 17.9161 16.9948 17.9062 17.0376 17.8856C17.0804 17.865 17.1176 17.8342 17.1458 17.7959C17.7483 17.0659 17.8042 17.0184 17.8083 17.0184V17.0201C17.8502 16.9809 17.9 16.9512 17.9543 16.9329C18.0087 16.9146 18.0663 16.9083 18.1233 16.9142C18.1744 16.9165 18.2236 16.9276 18.2708 16.9476C18.7133 17.1501 19.4375 17.4659 19.4375 17.4659L19.9225 17.6834C20.0042 17.7226 20.0783 17.8151 20.0808 17.9042C20.0842 17.9601 20.0892 18.0501 20.07 18.2151C20.0433 18.4309 19.9783 18.6901 19.9133 18.8259C19.8683 18.9183 19.8092 19.0032 19.7383 19.0776C19.6542 19.1658 19.5621 19.2461 19.4633 19.3176C19.3944 19.3687 19.3597 19.3937 19.3592 19.3926C19.2555 19.4584 19.149 19.5195 19.04 19.5759C18.8253 19.6896 18.5884 19.755 18.3458 19.7676C18.1917 19.7759 18.0375 19.7876 17.8825 19.7792C17.8758 19.7792 17.4092 19.7067 17.4092 19.7067C16.2244 19.3951 15.1287 18.8112 14.2092 18.0017C14.0208 17.8359 13.8458 17.6576 13.6675 17.4801C12.9275 16.7426 12.3667 15.9467 12.0258 15.1951C11.8529 14.8261 11.7592 14.425 11.7508 14.0176C11.7477 13.5115 11.9134 13.0189 12.2217 12.6176C12.2825 12.5392 12.34 12.4576 12.4392 12.3634C12.5442 12.2634 12.6117 12.2101 12.6842 12.1734C12.7809 12.1259 12.8859 12.0976 12.9933 12.0901Z" fill="white"/>
</svg>
