<svg width="20" height="20" viewBox="0 0 20 20" fill="none" xmlns="http://www.w3.org/2000/svg">
<path d="M6.04499 15.4117L6.64833 15.7642C7.66573 16.3577 8.82297 16.6692 10.0008 16.6667C11.3194 16.6667 12.6083 16.2757 13.7046 15.5431C14.801 14.8106 15.6554 13.7694 16.16 12.5512C16.6646 11.333 16.7966 9.9926 16.5394 8.6994C16.2822 7.40619 15.6472 6.2183 14.7149 5.28595C13.7825 4.3536 12.5946 3.71867 11.3014 3.46143C10.0082 3.2042 8.66778 3.33622 7.4496 3.8408C6.23143 4.34539 5.19024 5.19987 4.4577 6.2962C3.72515 7.39253 3.33416 8.68146 3.33416 10C3.33173 11.1782 3.64355 12.3358 4.23749 13.3533L4.58916 13.9567L4.04499 15.9575L6.04499 15.4117ZM1.67083 18.3333L2.79749 14.1933C2.05496 12.9208 1.66491 11.4733 1.66749 10C1.66749 5.3975 5.39833 1.66667 10.0008 1.66667C14.6033 1.66667 18.3342 5.3975 18.3342 10C18.3342 14.6025 14.6033 18.3333 10.0008 18.3333C8.52812 18.3359 7.08131 17.9461 5.80916 17.2042L1.67083 18.3333ZM6.99333 6.09C7.10555 6.08222 7.21749 6.08111 7.32916 6.08667C7.37416 6.09 7.41916 6.09444 7.46416 6.1C7.59666 6.115 7.74249 6.19583 7.79166 6.3075C8.03999 6.87139 8.28111 7.43806 8.51499 8.0075C8.56666 8.13417 8.53583 8.29667 8.43749 8.455C8.38749 8.53583 8.30916 8.64917 8.21833 8.765C8.12416 8.88583 7.92166 9.1075 7.92166 9.1075C7.92166 9.1075 7.83916 9.20583 7.87083 9.32833C7.88249 9.375 7.92083 9.4425 7.95583 9.49917L8.00499 9.57833C8.21833 9.93417 8.50499 10.295 8.85499 10.635C8.95499 10.7317 9.05249 10.8308 9.15749 10.9233C9.54749 11.2675 9.98916 11.5483 10.4658 11.7567L10.47 11.7583C10.5408 11.7892 10.5767 11.8058 10.68 11.85C10.7317 11.8717 10.7847 11.89 10.8392 11.905C10.8592 11.9106 10.8794 11.9136 10.9 11.9142C10.9475 11.916 10.9948 11.9061 11.0376 11.8855C11.0804 11.8649 11.1176 11.8341 11.1458 11.7958C11.7483 11.0658 11.8042 11.0183 11.8083 11.0183V11.02C11.8502 10.9808 11.9 10.9511 11.9543 10.9328C12.0087 10.9146 12.0663 10.9082 12.1233 10.9142C12.1744 10.9164 12.2236 10.9275 12.2708 10.9475C12.7133 11.15 13.4375 11.4658 13.4375 11.4658L13.9225 11.6833C14.0042 11.7225 14.0783 11.815 14.0808 11.9042C14.0842 11.96 14.0892 12.05 14.07 12.215C14.0433 12.4308 13.9783 12.69 13.9133 12.8258C13.8683 12.9182 13.8092 13.0031 13.7383 13.0775C13.6542 13.1657 13.5621 13.246 13.4633 13.3175C13.3944 13.3686 13.3597 13.3936 13.3592 13.3925C13.2555 13.4583 13.149 13.5195 13.04 13.5758C12.8253 13.6895 12.5884 13.755 12.3458 13.7675C12.1917 13.7758 12.0375 13.7875 11.8825 13.7792C11.8758 13.7792 11.4092 13.7067 11.4092 13.7067C10.2244 13.395 9.12869 12.8112 8.20916 12.0017C8.02083 11.8358 7.84583 11.6575 7.66749 11.48C6.92749 10.7425 6.36666 9.94667 6.02583 9.195C5.85291 8.82602 5.75923 8.4249 5.75083 8.0175C5.74769 7.51146 5.91337 7.01881 6.22166 6.6175C6.28249 6.53917 6.33999 6.4575 6.43916 6.36333C6.54416 6.26333 6.61166 6.21 6.68416 6.17333C6.78086 6.12583 6.88585 6.09753 6.99333 6.09Z" fill="white"/>
</svg>
